<svg xmlns="http://www.w3.org/2000/svg" width="105" height="42" viewBox="0 0 105 42" fill="none">
<path d="M104.963 22.6307C105.032 20.1967 104.987 17.7645 104.963 15.3305C104.93 11.8786 105.198 8.2838 104.583 4.94439C104.329 3.56631 104.305 2.90301 103.701 1.93473C102.964 0.752974 101.93 0.894022 100.98 0.758692C99.649 0.568086 98.311 0.630986 96.9824 0.840652C95.7194 1.03888 94.2846 0.369856 93.0216 0.547119C90.4101 0.913082 87.7799 0.255492 85.1633 0.407977C82.4998 0.564274 47.1723 0.789304 44.5078 0.514832C43.3196 0.392844 18.5756 -0.102828 17.3749 0.0191597C16.1639 0.141147 15.2119 0.215482 13.9998 0.322221C13.4099 0.373684 12.8086 0.165924 12.2228 0.306972C11.9783 0.36606 11.7369 0.442301 11.4945 0.516637C9.35645 0.558571 7.21633 0.730114 5.08139 0.88641C4.20432 0.951216 3.32413 1.15706 2.53446 1.90233C1.63554 2.75053 0.997765 4.29822 0.607609 5.97364C0.151907 7.91973 0.0811594 10.0202 0.138382 12.113C0.199767 14.3812 0.25699 16.6246 0.25699 18.8966C0.25699 21.2239 0.250747 23.5512 0.186241 25.8766C0.135261 27.735 7.16588e-06 29.5876 7.16588e-06 31.4498C-0.00207367 34.7569 0.448426 38.1839 2.1287 39.9146C3.14934 40.9667 4.26987 41.5881 5.42889 41.8473C6.64618 42.118 7.84057 41.8092 9.05682 41.6891C11.6735 41.4318 14.2943 41.7006 16.9088 41.8873C19.5536 42.076 45.5336 42.0383 48.1742 41.6933C50.8397 41.3445 86.1632 40.986 88.837 41.1423C91.4953 41.2986 94.1462 41.4968 96.8066 41.4073C98.1019 41.3634 99.3931 41.2071 100.673 40.8278C101.492 40.5857 102.408 40.6334 103.14 39.8271C103.923 38.9637 104.498 37.2349 104.678 35.6167C104.898 33.6363 104.69 31.5091 104.727 29.502C104.77 27.2071 104.899 24.9237 104.962 22.6307H104.963Z" fill="#FFD939"/>
</svg>
