<svg xmlns="http://www.w3.org/2000/svg" width="237" height="145" viewBox="0 0 237 145" fill="none">
<path d="M226.925 103.578C228.728 97.697 230.02 91.6925 231.407 85.7067C233.376 77.2185 236.786 68.7195 236.071 59.8509C235.776 56.1909 236.075 54.5401 233.957 51.4892C231.365 47.7643 226.629 46.9434 222.44 45.541C216.574 43.5739 210.519 42.2192 204.417 41.2343C198.616 40.2953 192.575 37.0396 186.787 36.0494C174.82 34.0006 163.398 29.4249 151.539 26.8476C139.467 24.2269 127.39 21.7835 115.578 18.1071C110.31 16.4686 104.388 13.6939 98.9142 12.6387C93.3939 11.5717 89.0678 10.6802 83.5522 9.57479C80.8681 9.03558 78.2917 7.84886 75.5713 7.53366C74.4356 7.40261 73.3035 7.31708 72.1678 7.22571C62.5285 4.91747 52.8002 2.92418 43.1047 0.89943C39.1212 0.0690847 35.0371 -0.419477 31.0289 0.514577C26.4662 1.57742 22.6483 4.64726 19.8654 8.30895C16.6216 12.5593 15.0139 17.6218 13.9863 22.8098C12.8698 28.4319 11.7497 33.9886 10.3548 39.5508C8.92603 45.2483 7.46914 50.9387 5.75145 56.5588C4.38127 61.0509 2.63567 65.434 1.49238 69.9929C-0.547284 78.0865 -0.625671 86.9844 5.867 93.1161C9.81031 96.8428 14.4672 99.6275 19.5195 101.569C24.8268 103.604 30.3869 104.195 35.9294 105.273C47.8529 107.593 59.4721 111.206 71.1137 114.612C82.8897 118.056 94.6973 120.918 106.782 123.051C118.982 125.203 131.122 127.315 143.049 130.713C154.905 134.093 166.704 137.567 178.721 140.348C184.572 141.701 190.473 142.774 196.46 143.289C200.291 143.62 204.383 144.77 208.167 143.621C212.219 142.39 215.868 138.807 217.671 135.048C219.874 130.447 220.244 125.005 221.645 120.134C223.245 114.564 225.227 109.119 226.92 103.577L226.925 103.578Z" fill="#313131"/>
</svg>
