<svg xmlns="http://www.w3.org/2000/svg" width="790" height="96" viewBox="0 0 790 96" fill="none">
<g filter="url(#filter0_d_117_135)">
<path d="M783.23 47.496C783.653 42.7583 783.377 38.0244 783.23 33.2868C783.025 26.5681 784.673 19.5711 780.882 13.0713C779.317 10.389 779.169 9.09793 775.449 7.21328C770.901 4.9131 764.524 5.18764 758.667 4.92423C750.463 4.55324 742.214 4.67567 734.022 5.08376C726.234 5.4696 717.388 4.1674 709.601 4.51243C693.499 5.22474 677.283 3.94481 661.15 4.2416C644.728 4.54582 153.369 4.98359 136.941 4.44936C129.615 4.21192 121.077 3.24734 113.674 3.48477C106.207 3.72221 100.338 3.8669 92.8647 4.07465C89.2275 4.17482 85.5197 3.77044 81.9082 4.04498C80.4007 4.15998 78.9124 4.30838 77.4178 4.45307C64.2353 4.53469 51.0401 4.86858 37.8769 5.1728C32.4692 5.29894 27.0423 5.69961 22.1734 7.15021C16.631 8.80114 12.6987 11.8136 10.2932 15.0747C7.48348 18.8625 7.04727 22.9509 7.40009 27.0244C7.77856 31.4393 8.13138 43.9767 8.13138 48.399C8.13138 52.9288 8.09289 49.2879 7.69517 53.814C7.38085 57.4312 6.54692 61.0373 6.54692 64.6619C6.53409 71.0987 9.3117 77.7692 19.6716 81.1378C25.9646 83.1857 32.8733 84.3952 40.0194 84.8997C47.5248 85.4265 54.889 84.8255 62.3879 84.5918C78.5211 84.0909 94.6801 84.614 110.8 84.9776C127.107 85.3449 143.266 85.2707 159.547 84.5992C175.981 83.9203 667.314 83.2228 683.8 83.527C700.19 83.8312 716.535 84.2171 732.938 84.0427C740.924 83.9574 748.885 83.6532 756.775 82.9149C761.824 82.4437 767.475 82.5365 771.985 80.9672C776.815 79.2865 780.362 75.9216 781.472 72.7719C782.826 68.9172 781.543 64.7769 781.774 60.8703C782.037 56.4035 782.832 51.959 783.223 47.496H783.23Z" fill="#313131"/>
</g>
<defs>
<filter id="filter0_d_117_135" x="0.046875" y="0.947449" width="789.908" height="94.7492" filterUnits="userSpaceOnUse" color-interpolation-filters="sRGB">
<feFlood flood-opacity="0" result="BackgroundImageFix"/>
<feColorMatrix in="SourceAlpha" type="matrix" values="0 0 0 0 0 0 0 0 0 0 0 0 0 0 0 0 0 0 127 0" result="hardAlpha"/>
<feOffset dy="4"/>
<feGaussianBlur stdDeviation="3.25"/>
<feComposite in2="hardAlpha" operator="out"/>
<feColorMatrix type="matrix" values="0 0 0 0 0 0 0 0 0 0 0 0 0 0 0 0 0 0 0.25 0"/>
<feBlend mode="normal" in2="BackgroundImageFix" result="effect1_dropShadow_117_135"/>
<feBlend mode="normal" in="SourceGraphic" in2="effect1_dropShadow_117_135" result="shape"/>
</filter>
</defs>
</svg>
